<svg width="78" height="42" viewBox="0 0 78 42" fill="none" xmlns="http://www.w3.org/2000/svg">
<path d="M74.675 24.2353L77.9579 7.50572C78.1949 6.29781 77.4022 5.14757 76.3326 5.14757H49.0561L48.4196 1.54347C48.261 0.645135 47.5785 0 46.7867 0H39.6667C38.7462 0 38 0.864229 38 1.93034V3.21723C38 4.28334 38.7462 5.14757 39.6667 5.14757H44.5197L49.398 32.7703C48.2309 33.5477 47.4444 35.0052 47.4444 36.6764C47.4444 39.164 49.1856 41.1806 51.3333 41.1806C53.4811 41.1806 55.2222 39.164 55.2222 36.6764C55.2222 35.4158 54.7745 34.2768 54.0539 33.4592H68.6127C67.8922 34.2768 67.4445 35.4158 67.4445 36.6764C67.4445 39.164 69.1856 41.1806 71.3333 41.1806C73.4811 41.1806 75.2222 39.164 75.2222 36.6764C75.2222 34.8931 74.3272 33.3521 73.0292 32.6223L73.4124 30.6698C73.6494 29.4619 72.8567 28.3116 71.7872 28.3116H53.147L52.6925 25.7378H73.0498C73.828 25.7378 74.5026 25.1142 74.675 24.2353Z" fill="white"/>
<circle cx="18" cy="21" r="18" fill="white"/>
<path d="M18.472 20.424C19.5067 20.552 20.296 20.904 20.84 21.48C21.384 22.056 21.656 22.776 21.656 23.64C21.656 24.2907 21.4907 24.8827 21.16 25.416C20.8293 25.9493 20.328 26.376 19.656 26.696C18.9947 27.0053 18.184 27.16 17.224 27.16C16.424 27.16 15.6507 27.048 14.904 26.824C14.168 26.5893 13.5387 26.2693 13.016 25.864L13.912 24.248C14.3173 24.5893 14.808 24.8613 15.384 25.064C15.9707 25.256 16.5733 25.352 17.192 25.352C17.928 25.352 18.504 25.2027 18.92 24.904C19.3467 24.5947 19.56 24.1787 19.56 23.656C19.56 23.1333 19.3573 22.728 18.952 22.44C18.5573 22.1413 17.9493 21.992 17.128 21.992H16.104V20.568L18.648 17.544H13.56V15.8H21.192V17.192L18.472 20.424Z" fill="#0676D9"/>
</svg>
